<svg width="40" height="39" viewBox="0 0 40 39" fill="none" xmlns="http://www.w3.org/2000/svg">
<g clip-path="url(#clip0_708_40)">
<path fill-rule="evenodd" clip-rule="evenodd" d="M19.8454 2.50598C10.0242 2.50598 2.07318 10.4164 2.07318 20.1581C2.07318 27.3111 6.36011 33.4666 12.5302 36.2353C13.1757 36.5257 13.8067 36.4105 14.2998 36.0407C14.5725 35.8283 14.7923 35.5557 14.942 35.2442C15.0917 34.9327 15.1672 34.5907 15.1627 34.2451V33.3206L12.9616 33.0222C12.9453 33.02 12.9291 33.0173 12.913 33.014C11.6997 32.7772 10.8806 32.3506 10.2805 31.7359C9.77602 31.2185 9.46784 30.5989 9.2067 30.0734L9.11587 29.8901C8.87451 29.3866 8.61095 28.8942 8.32596 28.4141C8.10699 28.067 7.93668 27.8885 7.768 27.7766C7.33979 27.4928 6.9278 27.011 6.9278 26.4093C6.92634 26.2361 6.96342 26.0647 7.03636 25.9076C7.1093 25.7505 7.21627 25.6116 7.34952 25.501C7.60102 25.3019 7.91446 25.1974 8.23513 25.2058C8.59521 25.2058 8.93421 25.3161 9.21644 25.4426C9.50515 25.5723 9.79224 25.7443 10.0599 25.9227C10.7119 26.3574 11.3542 26.8716 11.8976 27.5058C12.4637 28.1643 12.8643 28.5828 13.4677 28.6687C13.964 28.7401 14.4701 28.7417 14.8642 28.7239C14.919 28.4118 15.0093 28.1071 15.1335 27.8156C14.6521 27.7032 14.1772 27.5646 13.711 27.4003C12.6502 27.024 11.4678 26.4385 10.673 25.5513C9.80035 24.5748 9.26023 23.7038 8.95854 22.6852C8.66496 21.6925 8.6163 20.6172 8.6163 19.2936C8.6163 17.2661 9.4938 15.5582 10.1523 14.6515C9.89932 13.8577 9.71748 13.0429 9.60896 12.2169C9.53709 11.6959 9.53763 11.1675 9.61058 10.6468C9.69168 10.1715 9.89443 9.5876 10.4281 9.23563C10.9422 8.89339 11.5456 8.90799 12.016 8.99557C12.5042 9.08803 13.0119 9.29078 13.479 9.52272C14.2397 9.89902 14.9956 10.4018 15.5617 10.8284C16.5381 10.5413 18.2655 10.1715 19.8275 10.1375H19.8632C21.4268 10.1715 23.0764 10.5413 24.0285 10.8268C24.5962 10.4018 25.3504 9.8974 26.1095 9.52272C26.5766 9.29078 27.0827 9.08803 27.5725 8.99557C28.0429 8.90799 28.6463 8.89339 29.1621 9.23401C29.6941 9.5876 29.8985 10.1715 29.9779 10.6468C30.0607 11.1415 30.0412 11.6946 29.9779 12.2169C29.8699 13.0428 29.6886 13.8576 29.4362 14.6515C30.0947 15.5598 30.9722 17.2677 30.9722 19.2936C30.9722 20.6172 30.9236 21.6925 30.6316 22.6836C30.3283 23.7054 29.7882 24.5748 28.9155 25.5513C28.1208 26.4385 26.9383 27.024 25.8775 27.4003C25.3145 27.5982 24.7391 27.7592 24.155 27.8821C24.3545 28.4854 24.4259 28.9737 24.4259 29.2543V34.2662C24.4259 35.0286 24.7811 35.679 25.2855 36.0585C25.7754 36.43 26.4047 36.5451 27.0502 36.2629C33.2787 33.5185 37.6159 27.3468 37.6159 20.1565C37.6159 10.4164 29.6681 2.50598 19.8454 2.50598ZM15.7514 30.3475C15.3297 30.4075 15.7498 30.3475 15.7498 30.3475H15.745L15.732 30.3507L15.6849 30.3572C15.444 30.3855 15.2022 30.4055 14.9599 30.4172C14.5025 30.4383 13.8748 30.4399 13.2309 30.3475C11.9479 30.1658 11.1677 29.2575 10.6633 28.6671L10.6146 28.612C10.4497 28.4206 10.2725 28.2402 10.0842 28.0718C10.2513 28.38 10.4248 28.7239 10.6113 29.0937L10.6276 29.1261L10.7103 29.2948C10.9941 29.8593 11.1807 30.2356 11.4905 30.5502C11.7922 30.8584 12.2625 31.1569 13.213 31.345L16.1229 31.7392C16.3261 31.7667 16.5125 31.867 16.6473 32.0215C16.7821 32.176 16.8563 32.3743 16.856 32.5794V34.2451C16.856 35.5427 16.2478 36.6992 15.3151 37.3999C14.8255 37.7741 14.243 38.0075 13.6304 38.0749C13.0179 38.1424 12.3985 38.0413 11.8392 37.7827C5.08846 34.7544 0.381439 28.0118 0.381439 20.1581C0.381439 9.46595 9.1029 0.810997 19.8454 0.810997C30.5878 0.810997 39.3093 9.46595 39.3093 20.1581C39.3093 28.0524 34.5422 34.8128 27.7331 37.8151C27.1733 38.0689 26.5551 38.1656 25.9445 38.095C25.334 38.0245 24.7541 37.7892 24.2669 37.4145C23.7852 37.0437 23.396 36.5663 23.1298 36.0198C22.8635 35.4733 22.7276 34.8725 22.7325 34.2646V29.2526C22.7325 29.1391 22.653 28.4838 22.2102 27.6031C22.1491 27.4809 22.1183 27.3459 22.1205 27.2093C22.1226 27.0728 22.1576 26.9388 22.2225 26.8186C22.2875 26.6985 22.3804 26.5957 22.4934 26.5191C22.6065 26.4425 22.7363 26.3943 22.872 26.3785C23.4283 26.3168 24.3659 26.1368 25.3115 25.801C26.2749 25.4604 27.1395 24.9933 27.6536 24.4191C28.4176 23.5659 28.7988 22.9107 29.008 22.2018C29.2253 21.4671 29.2805 20.6123 29.2805 19.2936C29.2805 17.4429 28.3073 15.8874 27.8596 15.3862C27.758 15.273 27.6887 15.1344 27.659 14.9852C27.6294 14.8359 27.6404 14.6815 27.6909 14.5379C27.918 13.8989 28.1938 12.9046 28.2992 12.0173C28.3511 11.5713 28.3543 11.1982 28.3089 10.929C28.2987 10.8305 28.269 10.7351 28.2213 10.6484C28.1097 10.6291 27.9951 10.634 27.8856 10.663C27.6098 10.7149 27.2579 10.8446 26.8589 11.0425C26.0641 11.4351 25.2369 12.0157 24.7243 12.431C24.6113 12.5227 24.4764 12.5836 24.3329 12.6077C24.1894 12.6319 24.042 12.6185 23.9052 12.5688C22.5919 12.1392 21.2259 11.892 19.8454 11.8341C18.212 11.873 16.3273 12.3369 15.6833 12.5688C15.5465 12.6185 15.3992 12.6319 15.2556 12.6077C15.1121 12.5836 14.9772 12.5227 14.8642 12.431C14.2014 11.8973 13.4862 11.4321 12.7297 11.0425C12.4048 10.8719 12.0591 10.7443 11.7013 10.663C11.5923 10.6343 11.4783 10.6293 11.3672 10.6484C11.3195 10.7351 11.2897 10.8305 11.2796 10.929C11.2342 11.1982 11.2374 11.5713 11.2893 12.0173C11.3948 12.9046 11.6721 13.8989 11.8976 14.5379C11.9998 14.8299 11.9365 15.1543 11.7289 15.3862C11.2812 15.8874 10.308 17.4429 10.308 19.2936C10.308 20.6107 10.3632 21.4671 10.5805 22.2018C10.7914 22.9107 11.1709 23.5643 11.9333 24.4191C12.4491 24.9933 13.312 25.4604 14.2771 25.801C15.0666 26.0804 15.8839 26.274 16.7149 26.3785C16.8859 26.3968 17.0472 26.4668 17.1774 26.5791C17.3077 26.6913 17.4006 26.8406 17.4439 27.007C17.4873 27.1734 17.4789 27.3491 17.4199 27.5106C17.361 27.6721 17.2542 27.8119 17.1139 27.9113C16.8463 28.1027 16.6695 28.4465 16.5706 28.8439C16.5195 29.0485 16.489 29.2577 16.4797 29.4684V29.4992C16.4818 29.7048 16.4091 29.9042 16.2751 30.0603C16.1411 30.2163 15.955 30.3184 15.7514 30.3475V30.3475Z" fill="#93ADB7"/>
</g>
<defs>
<clipPath id="clip0_708_40">
<rect width="38.9278" height="38.9278" fill="white" transform="translate(0.381439)"/>
</clipPath>
</defs>
</svg>
