<svg width="40" height="39" viewBox="0 0 40 39" fill="none" xmlns="http://www.w3.org/2000/svg">
<path fill-rule="evenodd" clip-rule="evenodd" d="M12.7989 1.72905C14.7015 1.64146 15.3081 1.62199 20.1546 1.62199C25.0012 1.62199 25.6078 1.64308 27.5088 1.72905C29.4097 1.81501 30.7073 2.11832 31.8427 2.55788C33.0316 3.00718 34.1103 3.7095 35.0024 4.61781C35.9107 5.50829 36.6114 6.58529 37.059 7.77584C37.5002 8.91123 37.8019 10.2088 37.8895 12.1066C37.9771 14.0124 37.9966 14.619 37.9966 19.4639C37.9966 24.3104 37.9755 24.9171 37.8895 26.8197C37.8035 28.7174 37.5002 30.015 37.059 31.1504C36.6114 32.3411 35.9095 33.4199 35.0024 34.3116C34.1103 35.22 33.0316 35.9207 31.8427 36.3683C30.7073 36.8095 29.4097 37.1112 27.512 37.1988C25.6078 37.2864 25.0012 37.3058 20.1546 37.3058C15.3081 37.3058 14.7015 37.2848 12.7989 37.1988C10.9012 37.1128 9.60357 36.8095 8.46818 36.3683C7.27751 35.9206 6.19872 35.2187 5.30691 34.3116C4.39921 33.4206 3.69678 32.3424 3.2486 31.152C2.80904 30.0166 2.50735 28.719 2.41977 26.8213C2.33218 24.9154 2.31271 24.3088 2.31271 19.4639C2.31271 14.6174 2.3338 14.0108 2.41977 12.1098C2.50573 10.2088 2.80904 8.91123 3.2486 7.77584C3.69745 6.58542 4.40041 5.50718 5.30853 4.61619C6.19907 3.70869 7.27678 3.00627 8.46656 2.55788C9.60195 2.11832 10.8995 1.81663 12.7973 1.72905H12.7989ZM27.3644 4.94059C25.4829 4.85463 24.9184 4.83678 20.1546 4.83678C15.3908 4.83678 14.8264 4.85463 12.9449 4.94059C11.2045 5.02007 10.2605 5.31041 9.63115 5.55533C8.79906 5.87973 8.20379 6.26414 7.57933 6.88861C6.98737 7.4645 6.53181 8.16557 6.24605 8.94043C6.00113 9.56976 5.71079 10.5138 5.63131 12.2542C5.54535 14.1357 5.5275 14.7001 5.5275 19.4639C5.5275 24.2277 5.54535 24.7922 5.63131 26.6737C5.71079 28.4141 6.00113 29.3581 6.24605 29.9874C6.53152 30.7611 6.9873 31.4634 7.57933 32.0392C8.15513 32.6313 8.85746 33.087 9.63115 33.3725C10.2605 33.6174 11.2045 33.9078 12.9449 33.9872C14.8264 34.0732 15.3892 34.091 20.1546 34.091C24.9201 34.091 25.4829 34.0732 27.3644 33.9872C29.1048 33.9078 30.0488 33.6174 30.6781 33.3725C31.5102 33.0481 32.1055 32.6637 32.7299 32.0392C33.322 31.4634 33.7778 30.7611 34.0632 29.9874C34.3081 29.3581 34.5985 28.4141 34.678 26.6737C34.7639 24.7922 34.7818 24.2277 34.7818 19.4639C34.7818 14.7001 34.7639 14.1357 34.678 12.2542C34.5985 10.5138 34.3081 9.56976 34.0632 8.94043C33.7388 8.10834 33.3544 7.51307 32.7299 6.88861C32.154 6.29669 31.453 5.84114 30.6781 5.55533C30.0488 5.31041 29.1048 5.02007 27.3644 4.94059V4.94059ZM17.8757 24.9641C19.1484 25.4939 20.5656 25.5654 21.8852 25.1664C23.2048 24.7674 24.3449 23.9226 25.1108 22.7764C25.8767 21.6302 26.221 20.2536 26.0847 18.8818C25.9485 17.51 25.3402 16.228 24.3637 15.2548C23.7412 14.6328 22.9886 14.1565 22.16 13.8602C21.3313 13.5639 20.4473 13.455 19.5715 13.5414C18.6958 13.6278 17.85 13.9073 17.0952 14.3597C16.3404 14.8122 15.6954 15.4264 15.2064 16.1581C14.7175 16.8897 14.3969 17.7207 14.2676 18.5912C14.1384 19.4617 14.2038 20.35 14.4591 21.1922C14.7144 22.0344 15.1532 22.8095 15.744 23.4617C16.3348 24.1139 17.0628 24.627 17.8757 24.9641ZM13.6699 12.9792C14.5215 12.1276 15.5325 11.4521 16.6451 10.9912C17.7578 10.5303 18.9503 10.2931 20.1546 10.2931C21.359 10.2931 22.5515 10.5303 23.6641 10.9912C24.7768 11.4521 25.7878 12.1276 26.6394 12.9792C27.491 13.8308 28.1665 14.8418 28.6273 15.9544C29.0882 17.0671 29.3254 18.2596 29.3254 19.4639C29.3254 20.6682 29.0882 21.8608 28.6273 22.9734C28.1665 24.0861 27.491 25.0971 26.6394 25.9486C24.9195 27.6685 22.5869 28.6347 20.1546 28.6347C17.7224 28.6347 15.3898 27.6685 13.6699 25.9486C11.9501 24.2288 10.9838 21.8962 10.9838 19.4639C10.9838 17.0317 11.9501 14.699 13.6699 12.9792V12.9792ZM31.3594 11.6589C31.5704 11.4598 31.7393 11.2204 31.8562 10.9549C31.973 10.6894 32.0354 10.4031 32.0397 10.113C32.0439 9.82294 31.9899 9.53496 31.8808 9.26614C31.7717 8.99731 31.6099 8.7531 31.4047 8.54797C31.1996 8.34283 30.9554 8.18094 30.6865 8.07188C30.4177 7.96282 30.1297 7.9088 29.8397 7.91303C29.5496 7.91726 29.2633 7.97964 28.9978 8.0965C28.7323 8.21335 28.4929 8.38229 28.2938 8.59332C27.9066 9.00373 27.6947 9.54887 27.7029 10.113C27.7111 10.6772 27.9389 11.2159 28.3378 11.6148C28.7368 12.0138 29.2755 12.2416 29.8397 12.2498C30.4038 12.258 30.949 12.046 31.3594 11.6589V11.6589Z" fill="#93ADB7"/>
</svg>
