<svg width="39" height="40" viewBox="0 0 39 40" fill="none" xmlns="http://www.w3.org/2000/svg">
<g clip-path="url(#clip0_708_43)">
<path d="M36.1501 5.67698H10.6265C9.27697 5.67698 8.18213 6.77182 8.18213 8.12137V33.645C8.18213 34.9945 9.27697 36.0893 10.6265 36.0893H36.1501C37.4997 36.0893 38.5945 34.9945 38.5945 33.645V8.12137C38.5945 6.77182 37.4997 5.67698 36.1501 5.67698V5.67698ZM36.1501 33.6564C19.1268 33.6526 10.6151 33.6488 10.6151 33.645C10.6189 16.6216 10.6227 8.10997 10.6265 8.10997C27.6498 8.11377 36.1615 8.11757 36.1615 8.12137C36.1577 25.1447 36.1539 33.6564 36.1501 33.6564ZM12.6908 17.0778H17.2032V31.5921H12.6908V17.0778ZM14.9489 15.0934C16.3897 15.0934 17.5643 13.9225 17.5643 12.4779C17.5643 12.1345 17.4967 11.7944 17.3653 11.4771C17.2338 11.1597 17.0412 10.8714 16.7983 10.6285C16.5554 10.3857 16.2671 10.193 15.9498 10.0616C15.6325 9.93013 15.2923 9.86248 14.9489 9.86248C14.6054 9.86248 14.2653 9.93013 13.948 10.0616C13.6307 10.193 13.3423 10.3857 13.0995 10.6285C12.8566 10.8714 12.6639 11.1597 12.5325 11.4771C12.4011 11.7944 12.3334 12.1345 12.3334 12.4779C12.3296 13.9225 13.5005 15.0934 14.9489 15.0934ZM24.5402 24.411C24.5402 22.5178 24.9013 20.6855 27.2469 20.6855C29.5582 20.6855 29.5924 22.8486 29.5924 24.5326V31.5921H34.1011V23.6317C34.1011 19.7237 33.2571 16.7167 28.6915 16.7167C26.498 16.7167 25.0268 17.9218 24.4223 19.0622H24.3615V17.0778H20.0315V31.5921H24.5402V24.411Z" fill="#93ADB7"/>
</g>
<defs>
<clipPath id="clip0_708_43">
<rect width="38.9278" height="38.9278" fill="white" transform="translate(0.0721588 0.810997)"/>
</clipPath>
</defs>
</svg>
