<svg width="40" height="39" viewBox="0 0 40 39" fill="none" xmlns="http://www.w3.org/2000/svg">
<path d="M35.8989 6.08281H4.26824C3.59533 6.08281 3.05168 6.62646 3.05168 7.29937V31.6306C3.05168 32.3035 3.59533 32.8472 4.26824 32.8472H35.8989C36.5718 32.8472 37.1154 32.3035 37.1154 31.6306V7.29937C37.1154 6.62646 36.5718 6.08281 35.8989 6.08281ZM32.827 10.2229L20.8325 19.5562C20.536 19.7881 20.1216 19.7881 19.825 19.5562L7.82669 10.2229C7.78146 10.188 7.74829 10.1398 7.73182 10.0851C7.71535 10.0304 7.71641 9.97193 7.73485 9.91786C7.7533 9.86378 7.7882 9.81684 7.83466 9.7836C7.88113 9.75036 7.93683 9.73249 7.99397 9.7325H32.6598C32.7169 9.73249 32.7726 9.75036 32.8191 9.7836C32.8655 9.81684 32.9004 9.86378 32.9189 9.91786C32.9373 9.97193 32.9384 10.0304 32.9219 10.0851C32.9055 10.1398 32.8723 10.188 32.827 10.2229V10.2229Z" fill="#93ADB7"/>
</svg>
