<svg width="39" height="39" viewBox="0 0 39 39" fill="none" xmlns="http://www.w3.org/2000/svg">
<g clip-path="url(#clip0_708_34)">
<path d="M37.3058 4.86598C35.7526 5.9616 34.0328 6.79957 32.2128 7.34763C31.2359 6.22442 29.9377 5.42831 28.4936 5.06699C27.0495 4.70566 25.5293 4.79655 24.1386 5.32736C22.7479 5.85817 21.5537 6.80329 20.7177 8.0349C19.8816 9.2665 19.4439 10.7252 19.4639 12.2136V13.8356C16.6135 13.9095 13.789 13.2773 11.242 11.9954C8.69507 10.7134 6.50469 8.82143 4.86596 6.48797C4.86596 6.48797 -1.62201 21.0859 12.9759 27.5739C9.63548 29.8414 5.65613 30.9783 1.62198 30.8179C16.2199 38.9278 34.0618 30.8179 34.0618 12.1649C34.0603 11.7131 34.0169 11.2625 33.9321 10.8187C35.5875 9.18615 36.7557 7.12495 37.3058 4.86598V4.86598Z" stroke="#93ADB7" stroke-width="2" stroke-linecap="round" stroke-linejoin="round"/>
</g>
<defs>
<clipPath id="clip0_708_34">
<rect width="38.9278" height="38.9278" fill="white"/>
</clipPath>
</defs>
</svg>
